<?xml version="1.0" encoding="UTF-8" standalone="no"?>
<svg
   xmlns:dc="http://purl.org/dc/elements/1.1/"
   xmlns:cc="http://creativecommons.org/ns#"
   xmlns:rdf="http://www.w3.org/1999/02/22-rdf-syntax-ns#"
   xmlns:svg="http://www.w3.org/2000/svg"
   xmlns="http://www.w3.org/2000/svg"
   xmlns:sodipodi="http://sodipodi.sourceforge.net/DTD/sodipodi-0.dtd"
   xmlns:inkscape="http://www.inkscape.org/namespaces/inkscape"
   viewBox="0 0 1157.0013 1011.9493"
   height="1011.9493"
   width="1157.0013"
   xml:space="preserve"
   id="svg2"
   version="1.1"
   sodipodi:docname="JERIMUM-logo.svg"
   inkscape:version="0.92.4 (5da689c313, 2019-01-14)"><sodipodi:namedview
     pagecolor="#ffffff"
     bordercolor="#666666"
     borderopacity="1"
     objecttolerance="10"
     gridtolerance="10"
     guidetolerance="10"
     inkscape:pageopacity="0"
     inkscape:pageshadow="2"
     inkscape:window-width="1920"
     inkscape:window-height="1017"
     id="namedview46"
     showgrid="false"
     inkscape:zoom="0.65962674"
     inkscape:cx="816.25435"
     inkscape:cy="442.74247"
     inkscape:window-x="-8"
     inkscape:window-y="-8"
     inkscape:window-maximized="1"
     inkscape:current-layer="svg2" /><metadata
     id="metadata8"><rdf:RDF><cc:Work
         rdf:about=""><dc:format>image/svg+xml</dc:format><dc:type
           rdf:resource="http://purl.org/dc/dcmitype/StillImage" /><dc:title></dc:title></cc:Work></rdf:RDF></metadata><defs
     id="defs6"><clipPath
       id="clipPath18"
       clipPathUnits="userSpaceOnUse"><path
         id="path16"
         d="M 0,758.962 H 867.751 V 0 H 0 Z" /></clipPath></defs><g
     id="g12"
     transform="matrix(4.6984488,0,0,-4.6984488,-605.77543,2382.6703)"><g
       id="g14"
       clip-path="url(#clipPath18)"><g
         id="g20"
         transform="translate(276.7148,330.1808)"><path
           inkscape:connector-curvature="0"
           d="m 0,0 v -13.06 c 0,-0.119 0,-0.261 -0.01,-0.391 -0.029,-1.241 -0.187,-2.438 -0.464,-3.581 -0.237,-0.99 -0.563,-1.937 -0.978,-2.829 -1.887,-4.18 -5.483,-6.998 -9.563,-6.998 h -30.76 c -4.229,0 -7.923,3.025 -9.76,7.433 -0.643,1.524 -1.048,3.189 -1.195,4.973 -0.04,0.457 -0.06,0.926 -0.06,1.393 V 0 c 0,-0.468 0.02,-0.936 0.06,-1.393 0.147,-1.785 0.552,-3.45 1.195,-4.974 1.837,-4.407 5.531,-7.433 9.76,-7.433 h 30.76 c 4.08,0 7.676,2.819 9.563,6.998 0.415,0.893 0.741,1.84 0.978,2.83 0.277,1.142 0.435,2.34 0.464,3.58 C 0,-0.261 0,-0.12 0,0"
           style="fill:#d86609;fill-opacity:1;fill-rule:nonzero;stroke:none"
           id="path22" /></g><g
         id="g24"
         transform="translate(276.7148,458.9957)"><path
           inkscape:connector-curvature="0"
           d="m 0,0 v -131.294 c 0,-0.109 0,-0.237 -0.01,-0.356 -0.029,-1.126 -0.187,-2.213 -0.464,-3.25 -0.237,-0.899 -0.563,-1.758 -0.978,-2.568 -1.887,-3.794 -5.483,-6.352 -9.563,-6.352 h -30.76 c -4.229,0 -7.923,2.746 -9.76,6.747 -0.643,1.383 -1.048,2.894 -1.195,4.514 -0.04,0.415 -0.06,0.84 -0.06,1.265 L -52.79,0 c 0,6.895 4.959,12.536 11.015,12.536 h 30.76 C -4.959,12.536 0,6.895 0,0"
           style="fill:#e0700a;fill-opacity:1;fill-rule:nonzero;stroke:none"
           id="path26" /></g><g
         id="g28"
         transform="translate(221.6924,330.1808)"><path
           inkscape:connector-curvature="0"
           d="m 0,0 v -13.06 c 0,-0.304 -0.01,-0.62 -0.02,-0.914 -0.109,-1.817 -0.484,-3.547 -1.086,-5.115 -1.798,-4.593 -5.572,-7.77 -9.909,-7.77 h -25.368 c -6.055,0 -11.013,6.214 -11.013,13.799 V 0 c 0,-7.585 4.958,-13.8 11.013,-13.8 h 25.368 c 4.337,0 8.111,3.178 9.909,7.771 0.602,1.567 0.977,3.298 1.086,5.115 C -0.01,-0.62 0,-0.305 0,0"
           style="fill:#d86609;fill-opacity:1;fill-rule:nonzero;stroke:none"
           id="path30" /></g><g
         id="g32"
         transform="translate(221.6924,443.7926)"><path
           inkscape:connector-curvature="0"
           d="m 0,0 v -116.091 c 0,-0.277 -0.01,-0.563 -0.02,-0.83 -0.109,-1.65 -0.484,-3.22 -1.086,-4.643 -1.798,-4.168 -5.572,-7.053 -9.909,-7.053 h -25.368 c -6.055,0 -11.013,5.64 -11.013,12.526 V 0 c 0,6.895 4.958,12.536 11.013,12.536 h 25.368 C -4.959,12.536 0,6.895 0,0"
           style="fill:#e0700a;fill-opacity:1;fill-rule:nonzero;stroke:none"
           id="path34" /></g><g
         id="g36"
         transform="translate(326.3545,330.1808)"><path
           inkscape:connector-curvature="0"
           d="m 0,0 v -13.06 c 0,-0.511 -0.021,-1.012 -0.079,-1.512 -0.158,-1.807 -0.593,-3.527 -1.255,-5.061 -1.887,-4.299 -5.532,-7.226 -9.69,-7.226 h -25.359 c -4.178,0 -7.823,2.938 -9.69,7.259 -0.326,0.74 -0.593,1.523 -0.8,2.34 -0.346,1.327 -0.523,2.742 -0.523,4.2 V 0 c 0,-1.458 0.177,-2.873 0.523,-4.201 0.207,-0.816 0.474,-1.599 0.8,-2.34 1.867,-4.32 5.512,-7.259 9.69,-7.259 h 25.359 c 4.158,0 7.803,2.928 9.69,7.227 0.662,1.534 1.097,3.254 1.255,5.06 C -0.021,-1.012 0,-0.511 0,0"
           style="fill:#d86609;fill-opacity:1;fill-rule:nonzero;stroke:none"
           id="path38" /></g><g
         id="g40"
         transform="translate(326.3545,443.7926)"><path
           inkscape:connector-curvature="0"
           d="m 0,0 v -116.091 c 0,-0.465 -0.021,-0.919 -0.079,-1.373 -0.158,-1.64 -0.593,-3.201 -1.255,-4.594 -1.887,-3.902 -5.532,-6.559 -9.69,-6.559 h -25.359 c -4.178,0 -7.823,2.667 -9.69,6.589 -0.326,0.672 -0.593,1.383 -0.8,2.124 -0.346,1.205 -0.523,2.489 -0.523,3.813 V 0 c 0,6.895 4.948,12.536 11.013,12.536 h 25.359 C -4.959,12.536 0,6.895 0,0"
           style="fill:#e0700a;fill-opacity:1;fill-rule:nonzero;stroke:none"
           id="path42" /></g><g
         id="g44"
         transform="translate(368.4775,330.1808)"><path
           inkscape:connector-curvature="0"
           d="m 0,0 v -13.06 c 0,-2.807 -0.682,-5.441 -1.848,-7.64 -1.985,-3.711 -5.354,-6.159 -9.167,-6.159 H -28.45 c -4.08,0 -7.676,2.818 -9.563,6.998 -0.829,1.784 -1.333,3.819 -1.422,5.985 -0.02,0.261 -0.03,0.544 -0.03,0.816 V 0 c 0,-0.272 0.01,-0.555 0.03,-0.816 0.089,-2.166 0.593,-4.201 1.422,-5.986 1.887,-4.179 5.483,-6.998 9.563,-6.998 h 17.435 c 3.813,0 7.182,2.449 9.167,6.16 C -0.682,-5.441 0,-2.808 0,0"
           style="fill:#d86609;fill-opacity:1;fill-rule:nonzero;stroke:none"
           id="path46" /></g><g
         id="g48"
         transform="translate(368.4775,428.5108)"><path
           inkscape:connector-curvature="0"
           d="m 0,0 v -100.81 c 0,-2.548 -0.682,-4.939 -1.848,-6.934 -1.985,-3.369 -5.354,-5.591 -9.167,-5.591 H -28.45 c -4.08,0 -7.676,2.558 -9.563,6.352 -0.829,1.62 -1.333,3.467 -1.422,5.433 -0.02,0.237 -0.03,0.493 -0.03,0.74 V 0 c 0,6.885 4.959,12.526 11.015,12.526 h 17.435 C -4.959,12.526 0,6.885 0,0"
           style="fill:#e0700a;fill-opacity:1;fill-rule:nonzero;stroke:none"
           id="path50" /></g><g
         id="g52"
         transform="translate(171.8262,330.1808)"><path
           inkscape:connector-curvature="0"
           d="m 0,0 v -13.06 c 0,-7.585 -4.959,-13.799 -11.015,-13.799 H -28.45 c -5.621,0 -10.303,5.354 -10.936,12.2 -0.049,0.522 -0.079,1.055 -0.079,1.599 V 0 c 0,-0.544 0.03,-1.077 0.079,-1.6 0.633,-6.845 5.315,-12.2 10.936,-12.2 h 17.435 C -4.959,-13.8 0,-7.585 0,0"
           style="fill:#d86609;fill-opacity:1;fill-rule:nonzero;stroke:none"
           id="path54" /></g><g
         id="g56"
         transform="translate(132.3613,428.5108)"><path
           inkscape:connector-curvature="0"
           d="M 0,0 C 0,0.494 0.03,0.978 0.079,1.452 0.712,7.666 5.394,12.526 11.015,12.526 H 28.45 C 34.506,12.526 39.465,6.885 39.465,0 v -100.81 c 0,-6.885 -4.959,-12.525 -11.015,-12.525 H 11.015 c -5.621,0 -10.303,4.86 -10.936,11.073 C 0.03,-101.788 0,-101.303 0,-100.81"
           style="fill:#e0700a;fill-opacity:1;fill-rule:nonzero;stroke:none"
           id="path58" /></g><g
         id="g60"
         transform="translate(274.3193,503.2906)"><path
           inkscape:connector-curvature="0"
           d="M 0,0 V -10.175 H -19.954 V -30.129 H -30.129 V 0 Z"
           style="fill:#352c24;fill-opacity:1;fill-rule:nonzero;stroke:none"
           id="path62" /></g><g
         id="g64"
         transform="translate(132.5566,280.1251)"><path
           inkscape:connector-curvature="0"
           d="m 0,0 c -1.569,0 -2.8,-1.31 -2.8,-2.79 v -36.5 c 0,-7.231 -2.79,-12.49 -10.029,-12.49 -2.221,0 -4.11,0.32 -6.08,1.31 -0.74,0.329 -0.99,0.49 -1.641,0.49 -1.479,0 -2.72,-1.23 -2.72,-2.71 0,-1.07 0.581,-1.89 1.571,-2.46 2.13,-1.241 5.75,-1.9 8.87,-1.9 11.43,0 15.619,7.73 15.619,17.76 v 36.5 C 2.79,-1.31 1.561,0 0,0"
           style="fill:#352c24;fill-opacity:1;fill-rule:nonzero;stroke:none"
           id="path66" /></g><g
         id="g68"
         transform="translate(149.3271,245.9347)"><path
           inkscape:connector-curvature="0"
           d="m 0,0 c 0.49,7.311 4.439,11.91 11.59,11.91 8.46,0 10.52,-6 10.52,-11.91 z M 11.59,16.681 C 1.79,16.681 -4.271,10.74 -5.22,0 c -0.091,-0.97 -0.13,-1.99 -0.13,-3.05 0,-13.809 6.829,-19.809 17.76,-19.809 7.31,0 11.59,3.369 12.819,4.609 0.5,0.49 0.911,0.98 0.911,1.891 0,1.309 -1.07,2.38 -2.39,2.38 -0.66,0 -0.98,-0.161 -1.48,-0.491 -2.3,-1.73 -5.09,-3.54 -9.86,-3.54 C 4.68,-18.01 0,-12.75 0,-4.609 h 24 c 3,0 3.26,2.389 3.28,4.609 0.01,0.221 0.01,0.44 0.01,0.65 0,5.59 -2.55,16.031 -15.7,16.031"
           style="fill:#352c24;fill-opacity:1;fill-rule:nonzero;stroke:none"
           id="path70" /></g><g
         id="g72"
         transform="translate(201.4375,262.4552)"><path
           inkscape:connector-curvature="0"
           d="m 0,0 c -5.671,0 -9.78,-2.8 -11.421,-6.58 v 3.62 c 0,1.48 -1.149,2.63 -2.63,2.63 -1.479,0 -2.63,-1.15 -2.63,-2.63 v -33.37 c 0,-1.481 1.151,-2.63 2.63,-2.63 1.481,0 2.63,1.149 2.63,2.63 v 18.41 c 0,0.48 0.021,0.94 0.051,1.399 0.449,6.8 4.29,11.42 11.37,11.42 1.399,0 2.55,1.151 2.55,2.551 C 2.55,-1.15 1.399,0 0,0"
           style="fill:#352c24;fill-opacity:1;fill-rule:nonzero;stroke:none"
           id="path74" /></g><g
         id="g76"
         transform="translate(212.6973,276.2647)"><path
           inkscape:connector-curvature="0"
           d="m 0,0 c -1.97,0 -3.12,-0.91 -3.12,-3.29 0,-1.97 1.15,-3.12 3.12,-3.12 1.979,0 3.13,1.15 3.13,3.12 C 3.13,-0.91 1.979,0 0,0 m 0,-14.14 c -1.47,0 -2.63,-1.15 -2.63,-2.63 v -33.37 c 0,-1.48 1.16,-2.63 2.63,-2.63 1.49,0 2.64,1.15 2.64,2.63 v 33.37 c 0,1.48 -1.15,2.63 -2.64,2.63"
           style="fill:#e0700a;fill-opacity:1;fill-rule:nonzero;stroke:none"
           id="path78" /></g><g
         id="g80"
         transform="translate(267.0371,262.6153)"><path
           inkscape:connector-curvature="0"
           d="M 0,0 C -6.33,0 -9.95,-2.551 -12,-5.75 -13.97,-2.46 -18.33,0 -25.07,0 c -5.34,0 -9.29,-2.71 -10.69,-5.75 v 2.63 c 0,1.479 -1.15,2.63 -2.63,2.63 -1.48,0 -2.63,-1.151 -2.63,-2.63 v -33.37 c 0,-1.481 1.15,-2.63 2.63,-2.63 1.48,0 2.63,1.149 2.63,2.63 v 20.3 c 0,6.9 2.47,11.509 10.11,11.509 8.06,0 10.11,-4.439 10.11,-10.939 v -20.87 c 0,-1.481 1.15,-2.63 2.63,-2.63 1.48,0 2.63,1.149 2.63,2.63 v 21.939 c 0,6.091 3.21,9.87 10.28,9.87 7.97,0 10.27,-4.439 10.27,-10.939 v -20.87 c 0,-1.481 1.16,-2.63 2.63,-2.63 1.48,0 2.63,1.149 2.63,2.63 v 21.939 C 15.53,-7.561 12.66,0 0,0"
           style="fill:#e0700a;fill-opacity:1;fill-rule:nonzero;stroke:none"
           id="path82" /></g><g
         id="g84"
         transform="translate(319.2373,262.1251)"><path
           inkscape:connector-curvature="0"
           d="m 0,0 c -1.48,0 -2.71,-1.15 -2.71,-2.63 v -21.46 c 0,-5.341 -1.73,-9.94 -10.03,-9.94 -8.3,0 -10.031,4.599 -10.031,9.94 V -2.63 C -22.771,-1.15 -24,0 -25.4,0 c -1.48,0 -2.63,-1.15 -2.63,-2.63 v -21.46 c 0,-7.801 2.63,-14.96 15.29,-14.96 12.74,0 15.29,7.159 15.29,14.96 V -2.63 C 2.55,-1.15 1.399,0 0,0"
           style="fill:#352c24;fill-opacity:1;fill-rule:nonzero;stroke:none"
           id="path86" /></g><g
         id="g88"
         transform="translate(379.5771,280.1251)"><path
           inkscape:connector-curvature="0"
           d="m 0,0 c -1.48,0 -2.14,-0.99 -2.47,-1.56 l -17.5,-32.63 -2.47,-4.61 -2.46,4.61 -17.44,32.63 C -42.75,-0.74 -43.57,0 -44.8,0 c -1.48,0 -2.71,-1.23 -2.71,-2.71 v -51.21 c 0,-1.48 1.23,-2.71 2.71,-2.71 1.48,0 2.71,1.23 2.71,2.71 v 40.44 l 11.13,-20.71 6.05,-11.27 c 0.58,-1.15 1.65,-1.561 2.47,-1.561 0.98,0 1.89,0.5 2.46,1.561 l 6.08,11.27 11.18,20.71 v -40.44 c 0,-1.48 1.24,-2.71 2.72,-2.71 1.479,0 2.71,1.23 2.71,2.71 V -2.71 C 2.71,-1.23 1.479,0 0,0"
           style="fill:#352c24;fill-opacity:1;fill-rule:nonzero;stroke:none"
           id="path90" /></g></g></g></svg>